<mxfile host="app.diagrams.net" modified="2021-01-06T14:33:52.919Z" agent="5.0 (Macintosh; Intel Mac OS X 10_14_6) AppleWebKit/537.36 (KHTML, like Gecko) Chrome/87.0.4280.88 Safari/537.36" etag="DCcEV7ppXZyvEb-ht2_S" version="14.1.2" type="github">
  <diagram id="zX0LKrRPOxZzMG7xesd7" name="Page-1">
    <mxGraphModel dx="2066" dy="1074" grid="1" gridSize="10" guides="1" tooltips="1" connect="1" arrows="1" fold="1" page="1" pageScale="1" pageWidth="827" pageHeight="1169" math="0" shadow="0">
      <root>
        <mxCell id="0" />
        <mxCell id="1" parent="0" />
        <mxCell id="JF6EsLFFWEZ-7UWFlfVX-1" value="业务EMR" style="rounded=0;whiteSpace=wrap;html=1;labelPosition=center;verticalLabelPosition=top;align=center;verticalAlign=bottom;" parent="1" vertex="1">
          <mxGeometry x="200" y="500" width="330" height="150" as="geometry" />
        </mxCell>
        <mxCell id="JF6EsLFFWEZ-7UWFlfVX-2" value="即席查询" style="rounded=1;whiteSpace=wrap;html=1;" parent="1" vertex="1">
          <mxGeometry x="230" y="545" width="110" height="60" as="geometry" />
        </mxCell>
        <mxCell id="JF6EsLFFWEZ-7UWFlfVX-3" value="DAG任务" style="rounded=1;whiteSpace=wrap;html=1;" parent="1" vertex="1">
          <mxGeometry x="400" y="545" width="110" height="60" as="geometry" />
        </mxCell>
        <mxCell id="ajKWVsG1eIA5zvTxtmB9-1" value="" style="endArrow=none;dashed=1;html=1;dashPattern=1 3;strokeWidth=2;entryX=0.5;entryY=0;entryDx=0;entryDy=0;exitX=0.5;exitY=1;exitDx=0;exitDy=0;" edge="1" parent="1" source="JF6EsLFFWEZ-7UWFlfVX-1" target="JF6EsLFFWEZ-7UWFlfVX-1">
          <mxGeometry width="50" height="50" relative="1" as="geometry">
            <mxPoint x="390" y="570" as="sourcePoint" />
            <mxPoint x="440" y="520" as="targetPoint" />
          </mxGeometry>
        </mxCell>
        <mxCell id="ajKWVsG1eIA5zvTxtmB9-2" value="default队列" style="text;html=1;strokeColor=none;fillColor=none;align=center;verticalAlign=middle;whiteSpace=wrap;rounded=0;" vertex="1" parent="1">
          <mxGeometry x="250" y="510" width="70" height="20" as="geometry" />
        </mxCell>
        <mxCell id="ajKWVsG1eIA5zvTxtmB9-3" value="dw队列" style="text;html=1;strokeColor=none;fillColor=none;align=center;verticalAlign=middle;whiteSpace=wrap;rounded=0;" vertex="1" parent="1">
          <mxGeometry x="420" y="510" width="70" height="20" as="geometry" />
        </mxCell>
      </root>
    </mxGraphModel>
  </diagram>
</mxfile>
